<svg xmlns="http://www.w3.org/2000/svg">

<!-- arrow -->
<symbol viewBox="0 0 7 10" id="arrow">
<path d="M6.79141 9.05421C7.02467 9.26992 7.02548 9.6204 6.79322 9.83704C6.58208 10.034 6.251 10.0525 6.01729 9.89219L5.95032 9.83873L1.14237 5.39264C0.929677 5.19596 0.910329 4.88737 1.08433 4.67032L1.14233 4.60816L5.95028 0.161336C6.18353 -0.0543896 6.56091 -0.0536639 6.79319 0.162956C7.00435 0.359884 7.0229 0.667444 6.84929 0.883814L6.79144 0.945788L2.40784 5.00061L6.79141 9.05421Z" />
</symbol>

<symbol viewBox="0 0 20 20" fill="none" id="logout">
<path d="M18.1601 10.1006H8.12598" stroke="white" stroke-width="1.5" stroke-linecap="round" stroke-linejoin="round"/>
<path d="M15.7212 7.67059L18.1612 10.1006L15.7212 12.5306" stroke="white" stroke-width="1.5" stroke-linecap="round" stroke-linejoin="round"/>
<path d="M13.6342 6.35826C13.3592 3.37493 12.2425 2.2916 7.80082 2.2916C1.88332 2.2916 1.88332 4.2166 1.88332 9.99993C1.88332 15.7833 1.88332 17.7083 7.80082 17.7083C12.2425 17.7083 13.3592 16.6249 13.6342 13.6416" stroke="white" stroke-width="1.5" stroke-linecap="round" stroke-linejoin="round"/>
</symbol>

<!-- search icon -->
<symbol viewBox="0 0 20 20" fill="none" id="search">
<g clip-path="url(#clip0_2_1953)">
<path d="M14.5656 16.0023C10.5704 19.1859 4.98549 18.3049 2.02729 14.6536C-0.827886 11.1285 -0.64932 6.04314 2.44811 2.82458C5.64856 -0.50074 10.6802 -0.944658 14.3277 1.78316C15.6345 2.76027 16.6104 4.00337 17.246 5.50807C17.8853 7.02151 18.0795 8.59614 17.8578 10.2201C17.6368 11.8365 16.9918 13.2769 15.9423 14.6212C16.0272 14.6767 16.1178 14.7167 16.1827 14.7816C17.3365 15.9305 18.4859 17.0836 19.6397 18.2325C19.9132 18.5047 20.0493 18.8218 19.9682 19.204C19.8071 19.9644 18.9018 20.2579 18.3211 19.7359C18.0489 19.4918 17.7985 19.2227 17.54 18.9642C16.5923 18.0171 15.6451 17.0693 14.6973 16.1221C14.658 16.0847 14.6168 16.0497 14.5656 16.0023ZM15.9529 8.98636C15.9629 5.12659 12.8468 2.00605 8.97825 2.00043C5.12035 1.99481 2.00669 5.09037 1.98983 8.94765C1.97297 12.8168 5.08289 15.9461 8.96326 15.9642C12.8055 15.9823 15.9429 12.8499 15.9529 8.98636Z" fill="#3D3D3D"/>
</g>
<defs>
<clipPath id="clip0_2_1953">
<rect width="19.9913" height="20" fill="white"/>
</clipPath>
</defs>
</symbol>

<symbol  viewBox="0 0 20 18" fill="none" id="heart">
<path d="M10 17.8873C9.71527 17.8873 9.44077 17.7842 9.22684 17.5968C8.41888 16.8903 7.63992 16.2264 6.95267 15.6408L6.94916 15.6377C4.93423 13.9207 3.19427 12.4378 1.98364 10.9771C0.630341 9.34409 0 7.79578 0 6.10434C0 4.46097 0.563507 2.94485 1.58661 1.83508C2.62192 0.712189 4.04251 0.09375 5.58716 0.09375C6.74164 0.09375 7.79892 0.45874 8.72955 1.1785C9.19922 1.54181 9.62494 1.98645 10 2.5051C10.3752 1.98645 10.8008 1.54181 11.2706 1.1785C12.2012 0.45874 13.2585 0.09375 14.413 0.09375C15.9575 0.09375 17.3782 0.712189 18.4135 1.83508C19.4366 2.94485 20 4.46097 20 6.10434C20 7.79578 19.3698 9.34409 18.0165 10.9769C16.8059 12.4378 15.0661 13.9205 13.0515 15.6374C12.363 16.224 11.5828 16.8889 10.773 17.5971C10.5592 17.7842 10.2846 17.8873 10 17.8873ZM5.58716 1.26532C4.37363 1.26532 3.25882 1.74963 2.44781 2.62915C1.62476 3.52194 1.17142 4.75607 1.17142 6.10434C1.17142 7.52692 1.70013 8.79919 2.88559 10.2296C4.03137 11.6122 5.73563 13.0645 7.70889 14.7462L7.71255 14.7492C8.4024 15.3371 9.18442 16.0036 9.99832 16.7153C10.8171 16.0023 11.6003 15.3347 12.2916 14.7458C14.2647 13.0642 15.9688 11.6122 17.1146 10.2296C18.2999 8.79919 18.8286 7.52692 18.8286 6.10434C18.8286 4.75607 18.3752 3.52194 17.5522 2.62915C16.7413 1.74963 15.6264 1.26532 14.413 1.26532C13.524 1.26532 12.7078 1.54791 11.9872 2.10516C11.3449 2.60199 10.8975 3.23004 10.6352 3.66949C10.5003 3.89548 10.2629 4.03036 10 4.03036C9.73709 4.03036 9.49966 3.89548 9.36478 3.66949C9.10263 3.23004 8.65524 2.60199 8.01285 2.10516C7.29218 1.54791 6.47598 1.26532 5.58716 1.26532Z" />
</symbol>

<symbol viewBox="0 0 20 20" fill="none" id="shopping-cart">

<path d="M14.294 16.8745H8.24077C5.65655 16.8745 3.55412 14.7721 3.55412 12.1879V7.38405C3.55412 4.98175 2.35676 2.75813 0.351225 1.4358C-0.00894369 1.19834 -0.108379 0.713895 0.129078 0.353726C0.366535 -0.00648163 0.850939 -0.105956 1.21119 0.131579C2.35606 0.886442 3.28487 1.88204 3.94905 3.02832C4.09258 3.18911 5.24995 4.41584 7.14726 4.41584H16.142C18.596 4.36995 20.5168 6.83267 19.8752 9.20138L18.8397 13.3284C18.3159 15.4163 16.4466 16.8745 14.294 16.8745ZM4.91926 5.53677C5.04912 6.1367 5.11634 6.7553 5.11634 7.38405V12.1879C5.11634 13.9107 6.51796 15.3123 8.24077 15.3123H14.294C15.7291 15.3123 16.9752 14.3401 17.3245 12.9482L18.3599 8.82121C18.7412 7.41373 17.5997 5.95084 16.142 5.97806H7.14722C6.28913 5.97806 5.54224 5.79305 4.91926 5.53677ZM7.85021 19.0226C7.85021 18.4833 7.41307 18.0462 6.87383 18.0462C5.57828 18.0978 5.57942 19.9479 6.87383 19.999C7.41307 19.999 7.85021 19.5618 7.85021 19.0226ZM15.6222 19.0226C15.6222 18.4833 15.1851 18.0462 14.6459 18.0462C13.3503 18.0978 13.3514 19.9479 14.6459 19.999C15.1851 19.999 15.6222 19.5618 15.6222 19.0226ZM16.9231 8.32138C16.9231 7.88998 16.5734 7.54027 16.142 7.54027H7.45966C6.42329 7.58152 6.42407 9.0616 7.45966 9.10249H16.142C16.5734 9.10249 16.9231 8.75279 16.9231 8.32138Z" fill="#46A358"/>
</g>

</symbol>

</svg>